<?xml version="1.0" encoding="UTF-8" standalone="no"?>
<!DOCTYPE svg PUBLIC "-//W3C//DTD SVG 1.1//EN"
 "http://www.w3.org/Graphics/SVG/1.1/DTD/svg11.dtd">
<!-- Generated by graphviz version 2.38.0 (20140413.2041)
 -->
<!-- Title: dependencies Pages: 1 -->
<svg width="850pt" height="284pt"
 viewBox="0.00 0.00 850.00 284.00" xmlns="http://www.w3.org/2000/svg" xmlns:xlink="http://www.w3.org/1999/xlink">
<g id="graph0" class="graph" transform="scale(1 1) rotate(0) translate(4 280)">
<title>dependencies</title>
<polygon fill="white" stroke="none" points="-4,4 -4,-280 846,-280 846,4 -4,4"/>
<text text-anchor="start" x="400.009" y="-42.4" font-family="sans-serif" font-weight="bold" font-size="14.00">Legend</text>
<polygon fill="#ffffb3" stroke="none" points="187,-10 187,-30 207,-30 207,-10 187,-10"/>
<text text-anchor="start" x="210.629" y="-15.4" font-family="sans-serif" font-size="14.00"> &#160;Declarations</text>
<polygon fill="#8dd3c7" stroke="none" points="300,-10 300,-30 320,-30 320,-10 300,-10"/>
<text text-anchor="start" x="323.725" y="-15.4" font-family="sans-serif" font-size="14.00"> &#160;Module</text>
<polygon fill="#80b1d3" stroke="none" points="386,-10 386,-30 406,-30 406,-10 386,-10"/>
<text text-anchor="start" x="409.781" y="-15.4" font-family="sans-serif" font-size="14.00"> &#160;Bootstrap</text>
<polygon fill="#fdb462" stroke="none" points="483,-10 483,-30 503,-30 503,-10 483,-10"/>
<text text-anchor="start" x="506.673" y="-15.4" font-family="sans-serif" font-size="14.00"> &#160;Providers</text>
<polygon fill="#fb8072" stroke="none" points="579,-10 579,-30 599,-30 599,-10 579,-10"/>
<text text-anchor="start" x="602.726" y="-15.4" font-family="sans-serif" font-size="14.00"> &#160;Exports</text>
<g id="clust1" class="cluster"><title>cluster_AppModule</title>
<polygon fill="none" stroke="black" stroke-dasharray="1,5" points="8,-70 8,-268 834,-268 834,-70 8,-70"/>
</g>
<g id="clust2" class="cluster"><title>cluster_AppModule_declarations</title>
<polygon fill="none" stroke="black" points="362,-78 362,-130 826,-130 826,-78 362,-78"/>
</g>
<g id="clust6" class="cluster"><title>cluster_AppModule_imports</title>
<polygon fill="none" stroke="black" points="16,-78 16,-130 354,-130 354,-78 16,-78"/>
</g>
<g id="clust8" class="cluster"><title>cluster_AppModule_bootstrap</title>
<polygon fill="none" stroke="black" points="288,-208 288,-260 454,-260 454,-208 288,-208"/>
</g>
<!-- AppComponent -->
<g id="node1" class="node"><title>AppComponent</title>
<polygon fill="#ffffb3" stroke="black" points="817.94,-122 712.06,-122 712.06,-86 817.94,-86 817.94,-122"/>
<text text-anchor="middle" x="765" y="-99.8" font-family="Times,serif" font-size="14.00">AppComponent</text>
</g>
<!-- AppModule -->
<g id="node4" class="node"><title>AppModule</title>
<polygon fill="#8dd3c7" stroke="black" points="412.657,-187 409.657,-191 388.657,-191 385.657,-187 329.343,-187 329.343,-151 412.657,-151 412.657,-187"/>
<text text-anchor="middle" x="371" y="-164.8" font-family="Times,serif" font-size="14.00">AppModule</text>
</g>
<!-- AppComponent&#45;&gt;AppModule -->
<g id="edge1" class="edge"><title>AppComponent&#45;&gt;AppModule</title>
<path fill="none" stroke="black" d="M765,-122.284C765,-143.321 765,-175 765,-175 765,-175 422.792,-175 422.792,-175"/>
<polygon fill="black" stroke="black" points="422.792,-171.5 412.792,-175 422.792,-178.5 422.792,-171.5"/>
</g>
<!-- ProductListComponent -->
<g id="node2" class="node"><title>ProductListComponent</title>
<polygon fill="#ffffb3" stroke="black" points="694.16,-122 547.84,-122 547.84,-86 694.16,-86 694.16,-122"/>
<text text-anchor="middle" x="621" y="-99.8" font-family="Times,serif" font-size="14.00">ProductListComponent</text>
</g>
<!-- ProductListComponent&#45;&gt;AppModule -->
<g id="edge2" class="edge"><title>ProductListComponent&#45;&gt;AppModule</title>
<path fill="none" stroke="black" d="M621,-122.023C621,-139.373 621,-163 621,-163 621,-163 422.844,-163 422.844,-163"/>
<polygon fill="black" stroke="black" points="422.844,-159.5 412.844,-163 422.844,-166.5 422.844,-159.5"/>
</g>
<!-- ProductDetailComponent -->
<g id="node3" class="node"><title>ProductDetailComponent</title>
<polygon fill="#ffffb3" stroke="black" points="529.588,-122 370.412,-122 370.412,-86 529.588,-86 529.588,-122"/>
<text text-anchor="middle" x="450" y="-99.8" font-family="Times,serif" font-size="14.00">ProductDetailComponent</text>
</g>
<!-- ProductDetailComponent&#45;&gt;AppModule -->
<g id="edge3" class="edge"><title>ProductDetailComponent&#45;&gt;AppModule</title>
<path fill="none" stroke="black" d="M391.642,-122.106C391.642,-122.106 391.642,-140.991 391.642,-140.991"/>
<polygon fill="black" stroke="black" points="388.142,-140.991 391.642,-150.991 395.142,-140.991 388.142,-140.991"/>
</g>
<!-- ProductListComponent  -->
<g id="node8" class="node"><title>ProductListComponent </title>
<polygon fill="#80b1d3" stroke="black" points="446.159,-252 295.841,-252 295.841,-216 446.159,-216 446.159,-252"/>
<text text-anchor="middle" x="371" y="-229.8" font-family="Times,serif" font-size="14.00">ProductListComponent </text>
</g>
<!-- AppModule&#45;&gt;ProductListComponent  -->
<g id="edge7" class="edge"><title>AppModule&#45;&gt;ProductListComponent </title>
<path fill="none" stroke="black" stroke-dasharray="1,5" d="M371,-187.106C371,-187.106 371,-205.991 371,-205.991"/>
<polygon fill="black" stroke="black" points="367.5,-205.991 371,-215.991 374.5,-205.991 367.5,-205.991"/>
</g>
<!-- BrowserModule -->
<g id="node5" class="node"><title>BrowserModule</title>
<polygon fill="#8dd3c7" stroke="black" points="346.473,-122 343.473,-126 322.473,-126 319.473,-122 239.527,-122 239.527,-86 346.473,-86 346.473,-122"/>
<text text-anchor="middle" x="293" y="-99.8" font-family="Times,serif" font-size="14.00">BrowserModule</text>
</g>
<!-- BrowserModule&#45;&gt;AppModule -->
<g id="edge4" class="edge"><title>BrowserModule&#45;&gt;AppModule</title>
<path fill="none" stroke="black" d="M337.829,-122.106C337.829,-122.106 337.829,-140.991 337.829,-140.991"/>
<polygon fill="black" stroke="black" points="334.329,-140.991 337.829,-150.991 341.329,-140.991 334.329,-140.991"/>
</g>
<!-- FormsModule -->
<g id="node6" class="node"><title>FormsModule</title>
<polygon fill="#8dd3c7" stroke="black" points="221.829,-122 218.829,-126 197.829,-126 194.829,-122 126.171,-122 126.171,-86 221.829,-86 221.829,-122"/>
<text text-anchor="middle" x="174" y="-99.8" font-family="Times,serif" font-size="14.00">FormsModule</text>
</g>
<!-- FormsModule&#45;&gt;AppModule -->
<g id="edge5" class="edge"><title>FormsModule&#45;&gt;AppModule</title>
<path fill="none" stroke="black" d="M174,-122.023C174,-139.373 174,-163 174,-163 174,-163 319.221,-163 319.221,-163"/>
<polygon fill="black" stroke="black" points="319.221,-166.5 329.221,-163 319.221,-159.5 319.221,-166.5"/>
</g>
<!-- HttpModule -->
<g id="node7" class="node"><title>HttpModule</title>
<polygon fill="#8dd3c7" stroke="black" points="108.439,-122 105.439,-126 84.4387,-126 81.4387,-122 23.5613,-122 23.5613,-86 108.439,-86 108.439,-122"/>
<text text-anchor="middle" x="66" y="-99.8" font-family="Times,serif" font-size="14.00">HttpModule</text>
</g>
<!-- HttpModule&#45;&gt;AppModule -->
<g id="edge6" class="edge"><title>HttpModule&#45;&gt;AppModule</title>
<path fill="none" stroke="black" d="M66,-122.284C66,-143.321 66,-175 66,-175 66,-175 319.231,-175 319.231,-175"/>
<polygon fill="black" stroke="black" points="319.231,-178.5 329.231,-175 319.231,-171.5 319.231,-178.5"/>
</g>
</g>
</svg>
